<?xml version="1.0" encoding="UTF-8" standalone="no"?>
<!DOCTYPE svg PUBLIC "-//W3C//DTD SVG 1.1//EN" "http://www.w3.org/Graphics/SVG/1.1/DTD/svg11.dtd">
<svg width="100%" height="100%" viewBox="0 0 318 45" version="1.1" xmlns="http://www.w3.org/2000/svg" xmlns:xlink="http://www.w3.org/1999/xlink" xml:space="preserve" style="fill-rule:evenodd;clip-rule:evenodd;stroke-linejoin:round;stroke-miterlimit:1.41421;">
    <g transform="matrix(1,0,0,1,-1806,-125)">
        <g transform="matrix(1.07692,1.00091e-18,7.37038e-19,0.79,1576.22,0)">
            <g transform="matrix(1.41467,-1.79236e-18,-1.31983e-18,1.92847,-36.5917,46.8729)">
                <g id="sr-logo">
                    <g id="Navbar">
                        <g id="SR-logo">
                            <g transform="matrix(0.472987,0,0,0.472987,84.3114,15.4342)">
                                <path d="M236.333,132.299C235.79,133.982 235.414,135.13 234.52,136.461C234.211,136.807 233.792,137.003 233.375,137.188C231.954,137.692 230.326,138.275 228.461,138.591C228.177,138.64 227.841,138.653 227.524,138.708C226.452,138.899 225.228,138.74 223.899,138.475C223.503,138.394 221.777,138.03 221.442,137.89C220.814,137.624 219.927,136.863 219.643,136.566C218.93,135.828 217.553,133.52 217.316,132.759C217.192,132.36 216.973,131.257 217.136,130.875C217.694,129.571 218.402,128.809 218.815,128C218.29,126.632 217.359,126.102 216.529,125.022C215.691,123.929 214.844,122.904 213.956,121.864C213.036,120.874 210.87,118.215 210.651,117.974C210.336,117.631 209.844,117.257 209.964,116.734C210.014,116.516 210.14,116.28 210.49,116.251C210.76,116.229 211.033,116.292 211.603,116.251C212.448,116.192 213.28,116.222 214.22,116.191C214.791,116.174 214.924,116.492 215.069,116.632C217.271,118.747 217.683,119.786 219.805,121.981C220.337,122.714 220.811,123.032 221.326,123.618C221.486,123.801 222.834,125.392 223.609,126.225C223.9,126.558 224.542,127.117 224.568,127.714C224.539,128.07 224.637,128.028 224.409,128.302C224.169,128.588 223.383,129.157 222.963,129.467C222.779,129.603 222.135,130.266 221.778,130.805C221.676,130.96 221.463,131.166 221.426,131.284C221.335,131.714 221.484,132.018 221.563,132.337C221.746,133.075 222.274,133.562 222.643,133.999C222.719,134.088 222.864,134.187 222.965,134.249C223.068,134.31 223.188,134.424 223.359,134.516C223.981,134.851 224.626,135.251 225.537,135.317C226.377,135.376 227.34,135.204 228.228,135.082C229.098,134.964 229.953,134.845 230.566,134.497C231.076,134.21 231.299,133.492 231.502,132.977C231.752,132.344 232.071,131.641 232.087,131.105C232.115,130.217 231.082,128.76 230.45,127.946C229.727,127.016 229.715,126.562 229.011,126.04C228.936,125.985 228.839,125.841 228.98,125.69C229.808,124.806 230.784,124.236 231.604,123.346C231.724,123.215 232.055,123.358 232.085,123.396C232.793,124.304 233.521,125.462 233.655,125.584C233.721,125.644 233.941,125.885 233.992,125.966C234.74,127.153 235.565,128.265 236.298,129.467C236.496,130.001 236.34,130.653 236.472,131.253C236.487,131.325 236.531,131.585 236.532,131.69C236.535,131.845 236.36,132.213 236.333,132.299M216.998,109.581C217.263,108.823 217.65,107.373 218.167,106.19C218.284,105.922 218.479,105.478 218.636,105.253C218.662,105.216 218.958,104.924 219.104,104.785C219.816,104.111 221.401,103.574 222.496,103.265C223.789,102.9 225.13,102.446 226.59,102.446C228.748,102.433 231.811,103.255 232.087,103.382C232.364,103.509 233.565,104.249 233.725,104.435C233.885,104.621 235.6,107.24 236.416,109.113C236.312,109.515 235.883,109.532 235.591,109.699C234.885,110.106 233.408,110.928 233.023,110.868C232.203,110.576 232.1,109.712 231.736,108.997C231.382,108.3 230.836,107.279 230.566,107.008C230.297,106.736 229.067,106.032 227.994,105.955C227.496,105.92 226.901,106.018 226.356,106.072C225.073,106.201 223.541,106.22 222.878,106.697C222.442,107.124 222.247,107.843 222.028,108.412C221.786,109.04 221.416,109.645 221.442,110.284C221.475,111.011 222.027,111.702 222.378,112.272C222.794,112.945 223.224,113.457 223.548,114.027C225.054,115.445 227.683,117.844 228.864,119.587C229.242,119.988 229.688,120.319 230.045,120.742C230.082,120.785 230.083,120.955 230.047,120.995C229.242,121.903 227.88,122.664 227.124,123.449C227.062,123.512 226.868,123.574 226.812,123.521C226.643,123.359 225.397,121.726 224.653,121.224C223.588,119.874 221.392,117.556 220.273,116.132C219.724,115.433 219.13,114.765 218.636,114.027C218.15,113.301 217.555,112.506 217.232,111.804C217,111.202 216.872,109.953 216.998,109.581M226.213,90.819C209.545,90.819 196.032,104.332 196.032,121C196.032,137.669 209.545,151.182 226.213,151.182C242.883,151.182 256.396,137.669 256.396,121C256.396,104.331 242.883,90.819 226.213,90.819" style="fill:rgb(168,144,78);"/>
                            </g>
                            <g transform="matrix(0.472987,0,0,0.472987,84.3114,15.4342)">
                                <path d="M596.23,132.516C597.472,131.044 598.404,128.468 598.404,125.523C598.404,121.421 596.799,115.743 592.193,115.743C591.261,115.743 589.709,116.006 589.243,116.584C588.001,118.056 587.069,120.685 587.069,123.63C587.069,127.731 588.673,133.41 593.28,133.41C594.211,133.41 595.764,133.147 596.23,132.516M604.718,124.156C604.718,130.623 600.215,137.88 592.4,137.88C584.584,137.88 580.754,132.464 580.754,124.997C580.754,118.53 585.257,111.273 593.073,111.273C601.043,111.273 604.718,116.794 604.718,124.156" style="fill:rgb(8,38,36);fill-rule:nonzero;"/>
                            </g>
                            <g transform="matrix(0.472987,0,0,0.472987,84.3114,15.4342)">
                                <path d="M284.806,117.53C284.806,116.268 285.229,115.006 289.008,115.006C289.25,115.006 289.478,115.016 289.701,115.032C290.289,115.102 291.457,115.44 292.019,116.793C292.223,117.666 292.374,118.565 292.475,119.423C293.511,119.791 294.856,119.843 296.15,119.528C296.591,118.064 296.935,116.19 297.07,114.201C296.943,112.474 295.341,112.005 295.1,111.944C293.232,111.597 291.06,111.43 288.749,111.43C284.298,111.43 279.122,113.376 279.122,119.16C279.122,124.418 283.935,125.575 288.024,127.31C289.991,128.151 291.337,129.045 291.337,130.78C291.337,132.936 290.56,133.778 287.455,133.778C286.771,133.778 286.14,133.718 285.573,133.624C284.977,133.405 283.729,132.52 283.63,131.064C283.575,130.253 283.451,129.246 283.422,128.362C282.128,127.941 281.041,127.888 279.747,128.362C279.202,130.494 278.905,132.626 278.808,134.757C278.876,135.806 279.442,136.368 279.934,136.667C281.838,137.263 284.529,137.721 287.614,137.721C293.514,137.721 297.548,134.934 297.548,129.308C297.548,121.105 284.806,122.21 284.806,117.53" style="fill:rgb(8,38,36);fill-rule:nonzero;"/>
                            </g>
                            <g transform="matrix(0.472987,0,0,0.472987,84.3114,15.4342)">
                                <path d="M339.731,133.199C339.627,131.937 339.577,130.675 339.577,129.256L339.577,119.528C339.577,113.797 336.315,111.273 332.02,111.273C328.811,111.273 326.12,112.85 323.893,114.848C322.6,112.377 320.219,111.273 317.372,111.273C314.473,111.273 311.938,112.587 309.868,114.323C309.649,113.433 309.354,112.422 309.208,111.951C309.098,111.556 308.723,111.273 308.255,111.339C305.24,111.609 302.331,112.283 299.826,113.218C299.619,114.112 299.723,115.111 300.033,116.005C300.756,116.09 301.495,116.208 302.232,116.362C302.788,116.57 304.077,117.24 304.121,119.036C304.122,119.035 304.122,119.035 304.122,119.034L304.122,130.307C304.122,131.359 304.071,132.095 303.915,133.252C303.163,133.519 302.084,133.785 300.994,133.972C300.348,134.135 299.786,134.541 299.838,135.496C299.902,136.213 300.01,136.873 300.137,137.196C302.104,137.196 304.329,137.09 307.331,137.09C308.883,137.09 312.042,137.143 313.284,137.196C313.438,136.617 313.542,135.145 313.542,134.146C312.817,133.725 311.575,133.357 310.489,133.199C310.385,131.937 310.333,130.675 310.333,129.256L310.333,117.32C311.627,116.531 313.231,115.9 314.94,115.9C318.252,115.9 318.717,118.581 318.717,122.21L318.717,130.307C318.717,131.359 318.667,132.095 318.51,133.252C317.961,133.482 317.345,133.669 316.687,133.843L316.708,133.84C316.708,133.84 315.479,134.212 315.542,135.694C315.606,136.332 315.704,136.903 315.819,137.196C317.372,137.196 319.338,137.09 321.926,137.09C323.479,137.09 326.43,137.143 327.62,137.196C327.827,136.617 327.93,135.145 327.93,134.146C327.155,133.725 326.12,133.409 325.032,133.199C324.981,131.937 324.928,130.675 324.928,129.256L324.928,119.528C324.928,118.792 324.877,118.108 324.774,117.477C326.12,116.583 327.827,115.9 329.586,115.9C332.899,115.9 333.366,118.581 333.366,122.21L333.366,130.307C333.366,131.359 333.313,132.095 333.159,133.252C332.577,133.495 331.429,133.81 331.085,133.894C330.739,133.978 329.993,134.322 329.993,135.5C330.038,136.215 330.113,136.874 330.208,137.196C332.02,137.196 333.987,137.09 336.575,137.09C338.335,137.09 341.905,137.143 343.251,137.196C343.51,136.617 343.614,135.145 343.614,134.146C342.682,133.725 341.077,133.357 339.731,133.199" style="fill:rgb(8,38,36);fill-rule:nonzero;"/>
                            </g>
                            <g transform="matrix(0.472987,0,0,0.472987,84.3114,15.4342)">
                                <path d="M401.664,133.831C400.775,133.548 399.659,133.317 398.626,133.2C398.522,131.938 398.471,130.676 398.471,129.256L398.471,112.535C398.471,107.631 398.594,101.565 398.594,99.866C398.594,97.729 397.766,96.982 396.453,96.982C393.802,97.218 391.172,97.68 388.718,98.044L387.857,98.187C387.857,98.187 387.853,99.887 387.873,100.122L387.874,100.114C387.874,100.114 387.941,101.396 389.398,101.69C389.787,101.761 390.172,101.838 390.477,101.901C392.344,102.26 392.258,103.426 392.258,104.265C392.258,105.104 392.26,104.686 392.26,104.686L392.26,130.308C392.26,131.359 392.208,132.096 392.053,133.252C391.277,133.528 390.154,133.804 389.03,133.991L389.085,133.987C389.085,133.987 387.922,134.26 388.002,135.645C387.997,135.642 387.995,135.637 387.99,135.633C388.055,136.295 388.155,136.894 388.274,137.196C390.241,137.196 392.467,137.091 395.365,137.091C397.28,137.091 400.8,137.144 402.197,137.196C402.333,136.817 402.424,136.054 402.47,135.291C402.517,134.377 401.987,133.982 401.664,133.831" style="fill:rgb(8,38,36);fill-rule:nonzero;"/>
                            </g>
                            <g transform="matrix(0.472987,0,0,0.472987,84.3114,15.4342)">
                                <path d="M385.372,133.831C384.483,133.548 383.367,133.317 382.334,133.2C382.23,131.938 382.179,130.676 382.179,129.256L382.179,112.535C382.179,107.631 382.302,101.565 382.302,99.866C382.302,97.729 381.474,96.982 380.161,96.982C377.51,97.218 374.88,97.68 372.426,98.044L371.565,98.187C371.565,98.187 371.561,99.887 371.581,100.122L371.582,100.114C371.582,100.114 371.649,101.396 373.106,101.69C373.495,101.761 373.88,101.838 374.185,101.901C376.052,102.26 375.966,103.426 375.966,104.265C375.966,105.104 375.968,104.686 375.968,104.686L375.968,130.308C375.968,131.359 375.916,132.096 375.761,133.252C374.991,133.526 373.878,133.8 372.762,133.987C372.761,133.987 371.691,134.252 371.685,135.51C371.75,136.222 371.856,136.875 371.982,137.196C373.949,137.196 376.175,137.091 379.073,137.091C380.988,137.091 384.508,137.144 385.905,137.196C386.041,136.817 386.132,136.054 386.178,135.291C386.225,134.377 385.695,133.982 385.372,133.831" style="fill:rgb(8,38,36);fill-rule:nonzero;"/>
                            </g>
                            <g transform="matrix(0.472987,0,0,0.472987,84.3114,15.4342)">
                                <path d="M438.752,113.963C438.753,113.435 438.61,112.125 437.334,111.755C436.411,111.55 435.386,111.431 434.219,111.431C430.958,111.431 428.629,113.639 426.921,116.11C426.662,114.638 426.076,112.487 425.9,112.061C425.725,111.635 425.6,111.289 425.161,111.325C421.818,111.619 419.002,112.272 416.466,113.218C416.259,114.112 416.362,115.059 416.673,116.005C417.401,116.091 418.145,116.211 418.887,116.366C419.631,116.526 420.756,117.166 420.762,119.028L420.762,130.308C420.762,131.359 420.71,132.095 420.555,133.252C419.772,133.53 418.633,133.809 417.498,133.996C417.24,134.086 416.431,134.46 416.498,135.628C416.495,135.625 416.493,135.622 416.49,135.62C416.556,136.287 416.656,136.892 416.776,137.196C418.743,137.196 421.021,137.09 424.023,137.09C426.403,137.09 431.01,137.143 432.873,137.196C433.032,136.84 433.132,136.146 433.186,135.432C433.258,134.503 432.744,134.096 432.411,133.93C430.995,133.603 428.961,133.33 427.128,133.199C427.024,131.938 426.973,130.675 426.973,129.256L426.973,120.317C428.38,117.878 429.44,116.851 430.756,116.51C431.088,116.461 433.226,116.24 433.361,117.291C433.588,118.656 433.785,120.501 433.908,121.789C435.099,122.262 436.496,122.262 437.79,121.789C438.42,119.443 438.672,117.055 438.746,114.219L438.733,114.261C438.733,114.261 438.747,114.162 438.751,114.013C438.751,113.996 438.752,113.98 438.752,113.963" style="fill:rgb(8,38,36);fill-rule:nonzero;"/>
                            </g>
                            <g transform="matrix(0.472987,0,0,0.472987,84.3114,15.4342)">
                                <path d="M359.973,131.201C358.576,132.253 356.919,133.041 355.729,133.041C353.4,133.041 352.261,131.516 352.261,129.782C352.261,128.835 352.675,127.468 353.296,126.942C353.866,126.469 356.816,125.733 359.973,125.312L359.973,131.201ZM369.88,133.744C369.712,133.278 369.447,132.878 369.128,132.586C368.37,132.77 367.889,132.868 367.283,132.964C366.615,132.942 366.356,132.254 366.273,131.859C366.21,130.972 366.184,130.033 366.184,129.256L366.184,118.915C366.184,111.607 360.698,111.325 357.489,111.325C354.023,111.325 350.818,112.197 348.202,113.511C347.505,113.9 347.036,114.541 347.047,115.523C347.115,117.072 347.699,118.885 348.483,120.212C349.828,120.579 351.122,120.317 352.416,119.686C352.416,118.747 352.449,117.786 352.581,116.866C352.873,115.835 353.929,115.486 354.723,115.374C355.274,115.336 355.823,115.322 356.35,115.322C358.033,115.322 359.583,115.822 359.786,117.681C359.894,118.666 359.933,119.816 359.973,121.158C353.866,122.472 345.843,125.627 345.843,131.411C345.843,135.565 348.379,137.879 352.623,137.879C355.056,137.879 358.058,136.407 360.594,134.304C361.319,136.407 362.509,137.879 363.7,137.879C365.973,137.879 367.821,136.828 369.515,135.208C370.083,134.635 369.921,133.971 369.88,133.744" style="fill:rgb(8,38,36);fill-rule:nonzero;"/>
                            </g>
                            <g transform="matrix(0.472987,0,0,0.472987,84.3114,15.4342)">
                                <path d="M495.035,133.813C494.156,133.539 493.067,133.314 492.057,133.2C491.954,131.938 491.902,130.676 491.902,129.256L491.902,112.535C491.902,107.265 491.946,103.271 492.071,98.646C492.029,98.09 491.749,96.866 490.329,96.866C488.922,96.868 487.22,96.979 485.583,96.979C482.836,96.979 480.31,96.866 479.946,96.866C473.321,96.866 468.611,102.439 468.611,111.431L468.611,111.798C467.162,111.904 465.764,112.22 464.626,112.535C464.471,113.482 464.522,114.533 464.833,115.48C466.179,115.638 467.731,115.9 468.611,116.164L468.611,130.308C468.611,131.359 468.559,132.043 468.404,133.2C467.644,133.47 466.551,133.767 465.45,133.969L465.453,133.969C465.453,133.969 464.272,134.296 464.346,135.671C464.41,136.318 464.51,136.9 464.626,137.196C466.541,137.196 468.611,137.091 471.51,137.091C473.632,137.091 476.789,137.144 478.549,137.196C478.686,136.811 478.777,136.03 478.823,135.255C478.865,134.47 478.483,134.064 478.167,133.87C477.227,133.535 476.043,133.283 474.977,133.2C474.874,131.938 474.822,130.676 474.822,129.256L474.822,116.164L480.878,116.164C481.033,114.796 481.085,113.482 481.085,112.009L474.822,111.957L474.822,111.063C474.822,106.488 475.702,103.334 476.478,102.177C476.789,101.703 478.135,101.283 479.998,101.283C481.499,101.283 483.003,101.303 484.557,101.89C485.01,102.128 485.556,102.585 485.691,103.396L485.691,130.308C485.691,131.359 485.639,132.096 485.484,133.252C484.711,133.527 483.592,133.802 482.471,133.99C482.471,133.99 481.368,134.31 481.425,135.664C481.49,136.314 481.589,136.899 481.706,137.196C483.673,137.196 485.898,137.091 488.848,137.091C490.712,137.091 494.231,137.144 495.629,137.196C495.786,136.757 495.883,135.804 495.921,134.934C495.816,134.205 495.294,133.915 495.035,133.813" style="fill:rgb(8,38,36);fill-rule:nonzero;"/>
                            </g>
                            <g transform="matrix(0.472987,0,0,0.472987,84.3114,15.4342)">
                                <path d="M454.074,116.465C455.069,117.449 455.506,118.686 455.506,120.151C455.506,121.338 454.191,121.266 454.191,121.266C451.601,121.334 446.635,121.369 446.635,121.369C446.852,119.892 447.523,117.641 448.858,116.307C449.843,115.322 452.93,115.334 454.074,116.465M461.72,133.026C461.515,132.355 461.14,131.694 460.713,131.201C457.607,132.464 455.382,133.042 453.208,133.042C448.55,133.042 446.842,128.625 446.531,124.786C446.531,124.786 452.803,124.937 458.664,124.884C460.656,124.866 461.8,124.354 461.8,121.316C461.8,116.899 459.729,111.273 452.121,111.273C444.41,111.273 440.268,117.52 440.268,125.154C440.268,132.253 443.633,137.88 451.5,137.88C454.874,137.88 458.681,136.135 461.074,134.442C461.588,134.057 461.885,133.635 461.72,133.026" style="fill:rgb(8,38,36);fill-rule:nonzero;"/>
                            </g>
                            <g transform="matrix(0.472987,0,0,0.472987,84.3114,15.4342)">
                                <path d="M510.764,116.465C511.759,117.449 512.196,118.686 512.196,120.151C512.196,121.338 510.881,121.266 510.881,121.266C508.291,121.334 503.325,121.369 503.325,121.369C503.542,119.892 504.213,117.641 505.548,116.307C506.533,115.322 509.62,115.334 510.764,116.465M518.41,133.026C518.205,132.355 517.83,131.694 517.403,131.201C514.297,132.464 512.072,133.042 509.898,133.042C505.24,133.042 503.532,128.625 503.221,124.786C503.221,124.786 509.493,124.937 515.354,124.884C517.346,124.866 518.49,124.354 518.49,121.316C518.49,116.899 516.419,111.273 508.811,111.273C501.1,111.273 496.958,117.52 496.958,125.154C496.958,132.253 500.323,137.88 508.19,137.88C511.564,137.88 515.371,136.135 517.764,134.442C518.278,134.057 518.575,133.635 518.41,133.026" style="fill:rgb(8,38,36);fill-rule:nonzero;"/>
                            </g>
                            <g transform="matrix(0.472987,0,0,0.472987,84.3114,15.4342)">
                                <path d="M572.311,107.86C574.624,107.659 576.235,105.089 576.047,102.923C575.88,101.004 573.945,99.834 572.172,99.988C569.959,100.179 568.311,102.901 568.491,104.968C568.649,106.79 570.687,108.002 572.311,107.86" style="fill:rgb(8,38,36);fill-rule:nonzero;"/>
                            </g>
                            <g transform="matrix(0.472987,0,0,0.472987,84.3114,15.4342)">
                                <path d="M578.315,133.794C577.446,133.528 576.386,133.311 575.398,133.199C575.295,131.938 575.243,130.675 575.243,129.256L575.243,126.942C575.243,121.686 575.287,117.81 575.411,113.202L575.411,113.205C575.411,113.205 575.411,113.196 575.411,113.195C575.416,113.044 575.42,112.889 575.424,112.735C575.392,112.224 575.171,111.464 574.16,111.322C573.189,111.384 572.237,111.476 571.232,111.617C571.232,111.616 571.231,111.615 571.231,111.615C564.042,112.479 554.515,111.957 554.515,111.957L554.515,105.285C554.467,104.555 553.724,104.544 553.724,104.544L553.732,104.544C553.18,104.54 552.606,104.533 552.171,104.533C550.983,104.556 550.693,104.979 550.397,105.754L548.356,111.799C546.854,111.904 545.508,112.167 544.319,112.535C544.164,113.481 544.214,114.533 544.526,115.48C545.82,115.637 547.373,115.9 548.304,116.163L548.304,130.308C548.304,135.198 550.064,137.879 554.152,137.879C557.316,137.879 560.305,136.815 562.344,135.569C562.882,135.236 562.973,134.71 562.973,134.406C562.967,134.352 562.973,134.289 562.965,134.236C562.964,134.232 562.964,134.226 562.964,134.223C562.849,133.369 562.511,132.699 561.968,132.148C560.156,132.832 558.603,133.199 556.948,133.199C555.291,133.199 554.515,131.359 554.515,127.678C554.515,127.678 554.535,117.647 554.546,117.657C554.546,116.822 555.13,116.26 555.878,116.163C555.878,116.163 562.296,115.82 566.214,116.096C567.536,116.213 568.984,116.854 569.022,118.042C569.027,118.038 569.029,118.035 569.032,118.031L569.032,130.308C569.032,131.359 568.981,132.148 568.825,133.199C568.039,133.48 566.892,133.789 565.752,133.991C565.079,134.187 564.728,134.519 564.758,135.6C564.825,136.275 564.926,136.889 565.046,137.196C567.013,137.196 569.239,137.09 572.242,137.09C574.053,137.09 577.573,137.143 578.969,137.196C579.117,136.787 579.21,135.931 579.252,135.111C579.209,134.203 578.563,133.88 578.315,133.794" style="fill:rgb(8,38,36);fill-rule:nonzero;"/>
                            </g>
                            <g transform="matrix(0.472987,0,0,0.472987,84.3114,15.4342)">
                                <path d="M636.239,135.379C636.333,134.418 635.728,133.983 635.425,133.827C634.525,133.546 633.395,133.316 632.405,133.199C632.301,131.938 632.25,130.675 632.25,129.256L632.25,119.528C632.25,113.797 628.73,111.273 624.538,111.273C621.329,111.273 618.689,112.587 616.308,114.481C616.094,113.61 615.895,112.83 615.685,112.22C615.473,111.604 614.96,111.319 614.161,111.384C611.255,111.619 608.605,112.327 606.216,113.218C606.009,114.112 606.112,115.059 606.423,116.005C607.143,116.09 607.879,116.208 608.613,116.36C609.364,116.635 610.507,117.26 610.507,119.036C610.509,119.035 610.51,119.033 610.511,119.031L610.511,130.308C610.511,131.359 610.46,132.095 610.304,133.252C609.556,133.518 608.483,133.783 607.399,133.97L607.414,133.97C607.414,133.97 607.393,133.972 607.36,133.977C607.358,133.977 607.356,133.978 607.354,133.978C607.1,134.018 606.123,134.249 606.223,135.447C606.287,136.183 606.396,136.865 606.526,137.196C608.493,137.196 610.718,137.09 613.72,137.09C615.48,137.09 618.844,137.143 620.19,137.196C620.321,136.831 620.41,136.111 620.458,135.379C620.563,134.298 619.79,133.886 619.55,133.784C618.743,133.525 617.778,133.31 616.878,133.199C616.774,131.938 616.722,130.675 616.722,129.256L616.722,117.635C618.379,116.584 620.087,115.9 621.691,115.9C625.469,115.9 626.039,118.582 626.039,122.21L626.039,130.308C626.039,131.359 625.987,132.095 625.832,133.252C625.305,133.486 624.59,133.694 623.86,133.872L623.883,133.871C623.883,133.871 622.577,134.072 622.692,135.447C622.686,135.442 622.684,135.436 622.678,135.43C622.737,136.172 622.835,136.863 622.933,137.196C624.693,137.196 626.66,137.09 629.3,137.09C631.008,137.09 634.579,137.143 635.925,137.196C636.088,136.831 636.189,136.11 636.242,135.377C636.242,135.377 636.24,135.378 636.239,135.379" style="fill:rgb(8,38,36);fill-rule:nonzero;"/>
                            </g>
                            <g transform="matrix(0.472987,0,0,0.472987,84.3114,15.4342)">
                                <path d="M533.99,133.041C528.918,133.041 527.417,127.52 527.417,123.524C527.417,120.79 528.297,118.161 529.539,116.741C530.108,116.163 531.816,115.899 532.955,115.899C533.466,115.899 533.957,115.919 534.423,115.949C534.833,116.077 536.279,116.672 536.431,118.476C536.475,119.208 536.501,119.94 536.526,120.685C537.665,121.315 538.959,121.315 540.511,120.895C541.256,119.161 541.627,117.232 541.787,114.677C541.889,113.226 540.101,112.511 540.101,112.511C538.222,111.872 535.909,111.43 533.162,111.43C524.478,111.43 521.102,118.249 521.102,124.996C521.102,132.2 524.415,137.879 532.23,137.879C535.545,137.879 539.435,136.152 541.869,134.328C542.181,133.993 542.244,133.621 542.23,133.334C542.076,132.468 541.768,131.805 541.184,131.253C538.131,132.515 536.112,133.041 533.99,133.041" style="fill:rgb(8,38,36);fill-rule:nonzero;"/>
                            </g>
                        </g>
                    </g>
                </g>
            </g>
        </g>
    </g>
</svg>
